<svg id="Layer_1" data-name="Layer 1" xmlns="http://www.w3.org/2000/svg" viewBox="0 0 232.55 218.66"><symbol id="icon" viewBox="10 10 220 220"><defs><style>.cls-1{fill:#e6aa7f;}.cls-2{fill:#349aa3;}.cls-3{fill:#d4eceb;}.cls-4{fill:#fccc9d;}</style></defs><path class="cls-1" d="M114.35,125.23a11.54,11.54,0,0,0-3.09.15,75,75,0,0,0-12.45,2.11c-4.51,1.18-8.83,3-13.37,4.06-1.92.46-3.87.7-5.65,1.78a88.68,88.68,0,0,0-9.9,7.09,17.26,17.26,0,0,0-5.2,6.57c-1.4,2-2.54,4.24-3.75,6.39a90,90,0,0,0-7.68,18.13c-2,6.9-2.71,14.06-3.22,21.22A96.19,96.19,0,0,1,49,202.46a76,76,0,0,1-2,8.35,2.2,2.2,0,0,0,1.33-.27c9.15-3.15,18.15-6.76,27.37-9.75,2.53-.82,5.23-1.23,7.6-2.43a56.78,56.78,0,0,1,5.93-2.49c3.79-1.41,7.25-3.35,9.77-6.63a63.62,63.62,0,0,1,5.46-6c.93-.94,1.77-1.95,2.65-2.93-.26-.35,2.06-3.46,1.73-3.51L106.15,180c.71-1.48,3-2.84,2.64-4.05h0a4.63,4.63,0,0,0-.21-.56c-2.4-4.49-4.34-9.15-4.72-14.29a62.78,62.78,0,0,1,0-9.2c.16-2.24.91-4.37,1.21-6.55a45.09,45.09,0,0,1,2.73-10.85c1.4-3.41,2.7-7,6.33-8.8C114.28,125.65,114.43,125.56,114.35,125.23ZM106,180.16s0,0,0-.06l.06,0C106.07,180.12,106,180.16,106,180.16Z"/><path class="cls-2" d="M138.76,87.28c2.72-3.92,3.57-8.36,4-13a68.35,68.35,0,0,0-.89-9A82.78,82.78,0,0,0,137,46.37c-3.15-8.13-8-15.35-12.83-22.52a52.54,52.54,0,0,1-7.08-14.56,4.05,4.05,0,0,0-.77-1.88,5.72,5.72,0,0,0-.34.88c-.74,4.46-3,8.37-4.68,12.48a52.5,52.5,0,0,1-5.1,8.79c-5.47,8.32-10,17-12.23,26.85a99.81,99.81,0,0,0-2.52,16.74c-.43.94-.15,1.42.88,1.7a15.36,15.36,0,0,1,5.49,2.83,45.73,45.73,0,0,1,11.76,14.47A93.67,93.67,0,0,1,118,114.53c.26-.25.5-.44.72-.66,3.14-3.18,6-6.61,8.79-10.09C131.74,98.59,135,92.74,138.76,87.28Z"/><path class="cls-2" d="M109.22,114.9c-1-1-1.47-2.3-2.22-3.45-1.13-1.71-2.18-3.47-3.27-5.22-.78-1.2-1.54-2.41-2.33-3.6-2.76-4.16-6.16-7.81-9.12-11.81-1.14-1.54-10.53-7.88-13.8-9.78a5.84,5.84,0,0,0-3-.9c-.62-.16-1.23-.34-1.86-.47a98.14,98.14,0,0,0-14.18-1.88,64.24,64.24,0,0,0-9.81,0,99.24,99.24,0,0,0-14.8,2.69c-6.37,1.61-12.75,3.1-19.4,3a15.34,15.34,0,0,0-4.59.69c-1.06.31-1.16.67-.38,1.45a34.84,34.84,0,0,0,3.08,3,75.83,75.83,0,0,1,12.44,12.88c5.45,6.86,11.26,13.32,18.63,18.26a119.24,119.24,0,0,0,16.91,9.38c.51.23.94.34,1-.44a14,14,0,0,1,6.09-6.52c8.12-4.69,17-5.28,26.05-4.93,5,.19,10,.45,14.93.22.77,0,.76-.35.49-.9S109.48,115.48,109.22,114.9Z"/><path class="cls-2" d="M184.55,201.09A66.45,66.45,0,0,1,181.86,187,100.42,100.42,0,0,0,179.57,171a77.7,77.7,0,0,0-7.37-18.88,17.3,17.3,0,0,0-2.73-4.43c-.18-.73-.65-.37-1-.26a20.89,20.89,0,0,1-6.62.81,44.84,44.84,0,0,1-11.57-2.31c-4-1.32-7.48-3.71-11-6-5.12-3.37-10.08-6.9-14.2-11.49-.83-.92-1.62-1.87-2.51-2.74s-2.11-.59-2.26.31a80.12,80.12,0,0,0-.43,19.57c.41,4.88,1.22,9.72,1.81,14.58a44.69,44.69,0,0,0,3.66,12.31,14,14,0,0,0,2.52,3.9,135.26,135.26,0,0,0,11,10.1c9,7.25,19.29,11.67,30.2,14.84,5.27,1.52,10.52,2.95,15.21,5.92a4.56,4.56,0,0,0,1.52.83A31,31,0,0,0,184.55,201.09Z"/><path class="cls-2" d="M221.63,83.9c-1.7-.81-3.42-.6-5.15-.71-1.11-.07-2.23-.13-3.34-.25a126.83,126.83,0,0,1-15.93-3.18,77.48,77.48,0,0,0-14.5-2.28,90.66,90.66,0,0,0-23.62,2.13c-.78.17-1,.46-.86,1.19A23.9,23.9,0,0,1,155,91.09a62.62,62.62,0,0,1-14.89,16.56c-5.13,4.16-10.27,8.36-16.16,11.64a26.78,26.78,0,0,0,3.77,1.92c1.23,0,2.22.74,3.33,1.11,1.64.55,3.23,1.24,4.84,1.88l.28.21.44,0c.76.26,1.51.5,2.26.77,5.46,2,11.18,3,16.75,4.51,4.09,1.13,8.12.59,12.17-.16a34.87,34.87,0,0,0,11-3.77c7.39-4,14.33-8.47,20.27-14.46,3.66-3.7,6.77-7.85,10.16-11.77,2.26-2.62,4-5.64,6.74-7.9,2.06-1.72,4.39-3,6.58-4.56a19.84,19.84,0,0,0,3.29-2.64C224.31,84,222.82,84.47,221.63,83.9Z"/><path class="cls-3" d="M131,122.32c1.64.55,3.23,1.24,4.84,1.88l.1.33.18-.12.44,0c0,.28.11.74-.45.6a23.35,23.35,0,0,1-8.44-3.84"/><path class="cls-4" d="M106.13,180.06l-.1.1s0,0,0-.06l.08,0Z"/></symbol></svg>